<?xml version="1.0" encoding="UTF-8"?>
<svg width="878.58" height="194.34" version="1.1" viewBox="0 0 878.58 194.34" xml:space="preserve" xmlns="http://www.w3.org/2000/svg" xmlns:cc="http://creativecommons.org/ns#" xmlns:dc="http://purl.org/dc/elements/1.1/" xmlns:rdf="http://www.w3.org/1999/02/22-rdf-syntax-ns#"><metadata><rdf:RDF><cc:Work rdf:about=""><dc:format>image/svg+xml</dc:format><dc:type rdf:resource="http://purl.org/dc/dcmitype/StillImage"/><dc:title/></cc:Work></rdf:RDF></metadata><defs><clipPath id="clipPath274"><path d="m131.23 217.06-2.6544 8.5462-1.3002 4.2304 15.925 55.42h24.949z"/></clipPath><linearGradient id="linearGradient282" x1=".06" x2=".94" gradientTransform="matrix(-34.692 -71.209 59.885 -29.175 135.12 301.35)" gradientUnits="userSpaceOnUse"><stop stop-color="#ed1c24" offset="0"/><stop stop-color="#870e12" offset="1"/></linearGradient><clipPath id="clipPath292"><path d="m142.36 181.16c-0.4705 1.5151-0.9604 3.0921-1.468 4.7342l36.699 99.366h15.983l-9e-4 -2e-3z"/></clipPath><linearGradient id="linearGradient300" x1=".04" x2=".96" gradientTransform="matrix(-52.759 -108.3 90.588 -44.132 152.66 309.42)" gradientUnits="userSpaceOnUse"><stop stop-color="#ed1c24" offset="0"/><stop stop-color="#870e12" offset="1"/></linearGradient><clipPath id="clipPath310"><path d="m161.84 143.95c-0.7764 0.525-1.5364 1.0863-2.2791 1.6841-2.6277 2.1138-4.9229 4.5904-6.8556 7.399-1.3161 1.9037-2.4157 3.9158-3.3069 6.0367l50.664 126.19h27.982c2.5271 0 4.8226-0.3733 6.9157-1.3963l-71.772-137.33z"/></clipPath><linearGradient id="linearGradient318" x1=".06" x2=".94" gradientTransform="matrix(-72.049 -147.89 124.79 -60.794 165.81 318.95)" gradientUnits="userSpaceOnUse"><stop stop-color="#ed1c24" offset="0"/><stop stop-color="#870e12" offset="1"/></linearGradient></defs><g transform="matrix(1.3333 0 0 -1.3333 -151.72 380.34)"><g fill="#231f20"><path d="m287 248.81c-1.7725-0.0153-3.3783-0.4547-4.8178-1.3031-1.4394-0.8484-2.5755-1.9845-3.4239-3.4239-0.8485-1.4392-1.2878-3.045-1.3029-4.8178v-57.905c-0.0456-1.1968 0.1968-2.1969 0.7271-2.9999 0.5304-0.8028 1.2422-1.4088 2.1059-1.8029 0.8787-0.409 1.8031-0.606 2.7879-0.621 0.9844 0 1.9088 0.1967 2.7876 0.5907 0.8637 0.409 1.5604 0.9998 2.0758 1.8028 0.5147 0.8031 0.7571 1.8182 0.6967 3.0303v1.3634 3.6514 5.3177 6.348 6.7725h4.2421c1.5908 0.015 3.2422 0.015 4.9694 0.03 1.7422 0 3.4288 5e-3 5.0601 0.0151 1.6319 0.0107 3.1212 0.0153 4.4544 0.0153 1.3181 0.0153 2.3785 0.0153 3.1513 0.0303h1.212c6.5906 0 11.545 1.8785 14.848 5.6361 3.318 3.7571 4.9692 9.3629 4.9692 16.817 0.015 2.0149-0.106 4.0451-0.3787 6.0752-0.2727 2.0452-0.7878 3.9847-1.5455 5.8329-0.7577 1.8332-1.8785 3.4846-3.333 4.9391-1.4697 1.4391-3.3939 2.5755-5.7571 3.4089-2.3786 0.8484-5.3178 1.2818-8.8025 1.2875h-1.3634c-0.8941-0.015-2.0758-0.015-3.5453-0.015-1.4545-0.015-3.0756-0.015-4.8178-0.015-1.7575-0.0153-3.5149-0.0153-5.2727-0.0304-1.7422 0-3.363 0-4.8178-0.0153-1.4694 0-2.6512 0-3.545-0.015h-1.3637zm24.726-11.09c1.7422 0.015 3.1817-0.0759 4.3028-0.288 1.1211-0.2123 2.0148-0.6667 2.6359-1.3484 0.6367-0.6818 1.0803-1.732 1.3334-3.121 0.2529-1.3892 0.379-3.2573 0.3634-5.6055 0-2.4091-0.1664-4.3636-0.4997-5.8634-0.3181-1.4999-0.8334-2.6363-1.5302-3.424-0.697-0.7727-1.5956-1.3229-2.6818-1.5908-1.086-0.2682-2.4089-0.4-3.9238-0.3937h-1.1364c-0.7273-0.0156-1.7271-0.0156-2.9846-0.0307-1.2724 0-2.7014-5e-3 -4.2874-0.015-1.5862-0.0105-3.2575-0.015-4.9847-0.015-1.7271-0.0153-3.4089-0.0153-5.0754-0.0306h-4.6208v7.6209 6.6813 4.9238 2.4091h3.6057c1.4695 0.0151 3.0756 0.0151 4.8027 0.0304 1.7425 0 3.4592 5e-3 5.1818 0.015 1.7223 0.0102 3.2873 0.015 4.7267 0.015 1.4242 0.0153 2.5756 0.0153 3.439 0.0306h1.3334zm68.988-32.271c4.2724 1.1817 7.4996 3.5756 9.6662 7.1662 2.1512 3.6057 3.2419 8.4238 3.2419 14.469 0.0154 2.0152-0.1057 4.0451-0.3634 6.0755-0.2726 2.0452-0.7727 3.9844-1.5301 5.8329-0.7577 1.8332-1.8485 3.4846-3.3029 4.9391-1.4545 1.4394-3.3786 2.5755-5.7419 3.4086-2.3635 0.8485-5.3028 1.2816-8.7874 1.2881h-1.3938c-0.894-0.0153-2.0755-0.0153-3.5453-0.0153-1.4695-0.015-3.0756-0.015-4.833-0.015-1.7422-0.0153-3.4997-0.0153-5.2572-0.0304-1.7421 0-3.3483 0-4.8177-0.0153-1.4545 0-2.6212 0-3.515-0.015h-1.3635c-1.7725-0.015-3.3828-0.4589-4.818-1.3031-1.4346-0.8441-2.5756-1.9845-3.424-3.4237-0.8484-1.4394-1.2878-3.0455-1.3028-4.818v-57.542c-0.0606-1.2271 0.1817-2.2422 0.6968-3.0603 0.5153-0.8181 1.2121-1.4241 2.0758-1.8332 0.8784-0.394 1.8028-0.606 2.7876-0.591 0.9847 0 1.9091 0.2123 2.7876 0.6214 0.8634 0.409 1.5757 1.0148 2.1061 1.8331 0.5301 0.8028 0.7724 1.8182 0.7271 3.03v1.3334 3.6057 5.2271 6.2572 6.6659h4.121c1.5452 0 3.1663 0 4.8481 0.015 1.6818 0 3.3179 0.0156 4.9241 0.0306 1.6058 0 3.06 0.0301 4.3784 0.0454l9.0901-24.998c0.3637-1.1664 0.9394-2.0304 1.6968-2.6209 0.7727-0.576 1.6362-0.9093 2.5909-1 0.9544-0.0757 1.8938 0.0453 2.8329 0.3787 0.9244 0.3333 1.7275 0.8484 2.4092 1.5301 0.6814 0.6667 1.1361 1.4848 1.3635 2.4242 0.212 0.9391 0.1063 1.9848-0.3484 3.1056zm-29.907 31.907h3.6059c1.4695 0.0151 3.0754 0.0151 4.8028 0.0301 1.7422 0 3.4543 0 5.1814 0.0153 1.7269 0.0153 3.2874 0.0153 4.7268 0.0153 1.4241 0.015 2.5756 0.015 3.4393 0.03h1.3331c1.7121 0.0151 3.1363-0.0756 4.2574-0.303 1.1058-0.2273 1.9848-0.6817 2.6059-1.3634 0.621-0.6968 1.0604-1.7422 1.3181-3.121 0.2574-1.3938 0.3787-3.2573 0.3634-5.5755 0-2.4088-0.1667-4.363-0.4848-5.8631-0.3333-1.4998-0.8484-2.6363-1.5301-3.424-0.697-0.7727-1.5953-1.3224-2.6665-1.5908-1.0715-0.2682-2.3636-0.409-3.8634-0.394h-1.1664c-0.7424-0.015-1.7425-0.015-2.9999-0.0301-1.2575 0-2.6859-5e-3 -4.2724-0.0153-1.5863-0.0107-3.2423-0.0153-4.9694-0.0153-1.7272-0.015-3.409-0.015-5.0755-0.03h-4.6057zm57.844 6.2723c-1.6365-1.6362-2.8789-3.6514-3.7426-6.0452-0.8484-2.3936-1.3105-5.1361-1.3482-8.2267 0-7e-3 0-0.4847-0.015-1.3785 0-0.9091 0-2.1212-0.0153-3.6516 0-1.5299-0.0153-3.242-0.0303-5.1508-0.015-1.9092-0.019-3.8824-0.0301-5.9088-0.0116-2.0265-0.0156-3.9997-0.0306-5.9086-0.015-1.9091-0.03-3.621-0.03-5.1511-0.0153-1.5304-0.0153-2.7425-0.0153-3.6513-0.0153-0.8941-0.0153-1.3638-0.0153-1.3788 0-3.4693 0.4546-6.4085 1.3637-8.8174 0.9091-2.4242 2.1399-4.3977 3.6967-5.9392s3.3179-2.7572 5.2874-3.621c1.9545-0.8787 3.9847-1.4998 6.1056-1.8938 2.1061-0.3787 4.1817-0.6213 6.1968-0.712 2.0149-0.091 3.8633-0.1134 5.5298-0.1061 7e-3 0 0.0644-0.019 0.1664-0.0303 0.1024-0.0113 0.201-0.019 0.303-0.0303 0.1024-0.0114 0.1517-0.0301 0.167-0.0301 2.1512-0.0156 4.2914 0.0187 6.4086 0.0757 2.1172 0.0567 4.1816 0.2574 6.1815 0.5908 1.9995 0.318 3.882 0.8674 5.6358 1.6361 1.7538 0.7691 3.3483 1.8485 4.7724 3.2423 1.6818 1.6364 2.9543 3.6513 3.8027 6.0451 0.8637 2.3939 1.2878 5.1359 1.2878 8.2265 0 0.0153 0 0.5153 0.015 1.4697 0 0.9698 0 2.2573 0.0156 3.8937 0 1.6211 0.0187 3.4583 0.0301 5.4845 0.0113 2.0262 0.0189 4.14 0.0303 6.3025 0.0113 2.1629 0.019 4.2613 0.0303 6.3029 0.0111 2.0262 0.0303 3.8633 0.0303 5.4995 0.0151 1.6361 0.0151 2.9392 0.0151 3.9089 0.0153 0.9695 0.0153 1.4695 0.0153 1.4996 0 2.9092-0.394 5.4997-1.1668 7.757-0.7877 2.2425-1.9695 4.1513-3.5603 5.6968-1.3484 1.3484-2.8635 2.3935-4.5297 3.1512-1.6818 0.7574-3.4546 1.3031-5.3485 1.6362-1.9088 0.3333-3.8633 0.5304-5.8631 0.6211-2.0152 0.0759-4.0454 0.1213-6.0752 0.1366h-2.6363c-2.0755 0.015-4.1513-0.0153-6.2268-0.076-2.0605-0.0606-4.0757-0.2574-6.0452-0.5754-1.9695-0.3336-3.8217-0.8827-5.5752-1.6518-1.7538-0.7684-3.3485-1.8481-4.7874-3.2419zm23.635-56.36h-0.6367c-3.4996 0.0153-6.3782 0.167-8.6204 0.4544-2.2422 0.2877-3.9696 0.788-5.2118 1.5001-1.2274 0.7121-2.0908 1.7121-2.5755 2.9999-0.4697 1.2875-0.6894 2.9393-0.6818 4.9541 0 7e-3 0 0.4847 0.015 1.3788 0 0.9088 0 2.1209 0.0154 3.6513 0 1.5301 0.0187 3.2457 0.0303 5.1511 0.0113 1.9052 0.015 3.8784 0.03 5.9086 0.0153 2.0301 0.019 4.0033 0.0306 5.9088 0.0111 1.9051 0.0301 3.6209 0.0301 5.1508 0.015 1.5304 0.015 2.7425 0.015 3.6516 0.0153 0.8938 0.0153 1.3635 0.0153 1.3785 0.0454 1.5454 0.2121 2.8482 0.5001 3.8937 0.288 1.0607 0.727 1.8788 1.3181 2.4695 0.818 0.7424 1.9848 1.2728 3.5149 1.6061 1.5299 0.3181 3.2723 0.5151 5.2118 0.5757 1.9392 0.0757 3.939 0.106 5.9995 0.0907l2.6363-0.0907c1.9692 0.015 3.8633-0.0153 5.7118-0.0759 1.8331-0.0607 3.4693-0.2424 4.9084-0.5454 1.4395-0.2877 2.5302-0.7878 3.2879-1.4695 0.4998-0.5 0.8635-1.2271 1.1058-2.1665 0.2274-0.9545 0.3487-2.1059 0.3487-3.4696 0-0.0151 0-0.5151-0.0153-1.4695 0-0.9698 0-2.2572-0.0153-3.8784 0-1.6361-0.0187-3.4736-0.0301-5.4995-0.0116-2.0265-0.0153-4.1213-0.0303-6.2878-0.0153-2.1665-0.019-4.261-0.0303-6.2872-0.0114-2.0265-0.0304-3.8634-0.0304-5.4995-0.015-1.6212-0.015-2.9092-0.015-3.879-0.0153-0.9541-0.0153-1.4541-0.0153-1.4694 0-1.5455-0.1516-2.8636-0.4544-3.9238-0.303-1.0757-0.7273-1.8941-1.2727-2.4395-0.8484-0.7724-2.0492-1.3371-3.606-1.6664-1.5565-0.3294-3.348-0.5151-5.3328-0.5758-1.9845-0.0606-4.03-0.0756-6.1509-0.0303zm88.276 58.178-16.999-54.633c-0.4091-1.2121-0.9544-2.1212-1.6512-2.7422-0.7121-0.6364-1.4545-0.9545-2.2575-0.9848-0.8031-0.0303-1.5452 0.2577-2.2575 0.8634-0.6968 0.6061-1.2425 1.5302-1.6515 2.7726-0.015 0.0306-0.1967 0.6667-0.5754 1.8938-0.3787 1.2425-0.8941 2.9243-1.5608 5.0451-0.6514 2.1365-1.4088 4.5604-2.2422 7.2873-0.8484 2.7273-1.7422 5.6058-2.6663 8.6358-0.9394 3.0149-1.8788 6.0452-2.8182 9.0754-0.9241 3.0149-1.8178 5.8935-2.6662 8.6204-0.8334 2.7273-1.5911 5.1512-2.2425 7.2723-0.6667 2.1212-1.1815 3.803-1.5602 5.0148-0.379 1.2271-0.561 1.8482-0.576 1.8788-0.318 1.1665-0.8484 2.0452-1.6061 2.6512-0.7421 0.6061-1.5905 0.9848-2.5452 1.1058-0.9545 0.1214-1.9114 0.0278-2.848-0.2573-0.9369-0.2855-1.7728-0.7577-2.4849-1.4092-0.712-0.636-1.1967-1.4241-1.4544-2.3482-0.2727-0.9243-0.197-1.9695 0.212-3.1059l16.908-54.632c0.5151-1.6515 1.2575-3.1666 2.2422-4.5754 0.9697-1.4094 2.1234-2.6391 3.4393-3.6969 1.3155-1.0579 2.7419-1.8786 4.2571-2.4693 1.5304-0.591 3.0909-0.879 4.6967-0.8941 1.6061 0.0151 3.1666 0.3031 4.6967 0.8941 1.5148 0.5907 2.9415 1.4267 4.2574 2.4846 1.3152 1.0578 2.4695 2.3028 3.439 3.7116 0.9847 1.4242 1.7271 2.9696 2.2422 4.6361 0.015 0.015 0.1995 0.6389 0.576 1.8485 0.3761 1.2092 0.8934 2.8786 1.5604 4.9997 0.6512 2.1209 1.4089 4.5298 2.2422 7.257 0.8484 2.7119 1.7422 5.5755 2.6663 8.6054 0.9397 3.015 1.8788 6.0299 2.8182 9.0598 0.9241 3.015 1.8179 5.8938 2.6663 8.6057 0.8334 2.727 1.5908 5.1512 2.2422 7.2723 0.6667 2.1209 1.182 3.8027 1.5607 5.0148 0.3787 1.2271 0.5604 1.8485 0.5758 1.8785 0.4087 1.1514 0.4847 2.1969 0.212 3.1212-0.2574 0.9392-0.7424 1.7119-1.4545 2.3633-0.712 0.6364-1.5301 1.0908-2.4695 1.3788s-1.8785 0.3636-2.8332 0.2273c-0.9545-0.1213-1.7879-0.4847-2.53-1.0908-0.7273-0.6063-1.2577-1.4848-1.5607-2.6362zm19.106-1.5455v-62.541c-0.0454-1.2121 0.197-2.2272 0.7273-3.0303 0.5301-0.818 1.2422-1.4241 2.1059-1.8331 0.8785-0.4091 1.8028-0.6211 2.7876-0.6211 0.9848-0.0153 1.9091 0.197 2.7876 0.591 0.8634 0.4088 1.563 1.0168 2.0758 1.8329 0.5128 0.8158 0.7574 1.8332 0.6968 3.0606v62.541c0.0606 1.2275-0.184 2.2445-0.6968 3.0603-0.5128 0.8161-1.2124 1.4244-2.0758 1.8332-0.8785 0.394-1.8028 0.606-2.7876 0.591-0.9848 0-1.9091-0.212-2.7876-0.621-0.8637-0.4094-1.5758-1.0151-2.1059-1.8335-0.5303-0.8028-0.7727-1.8181-0.7273-3.03zm25.845-2.7272c-1.8181-1.7271-3.183-3.7434-4.0904-6.0448-0.9079-2.3015-1.3637-4.8634-1.3637-7.6814 0-3.3636 0.4544-6.3328 1.3637-8.9237 0.9088-2.5756 2.2723-4.7571 4.0904-6.5296 1.5151-1.4545 3.1816-2.5909 5.0301-3.3786 1.8485-0.8031 3.7877-1.3638 5.8175-1.6818 2.0455-0.3181 4.1211-0.4848 6.2119-0.5304 2.1058-0.03 4.1817-0.015 6.2115 0.0456 2.0302 0.0757 4.0014 0.0893 5.9392 0.0607 1.9378-0.0292 3.6677-0.2137 5.2115-0.5454 1.544-0.3322 2.7275-0.894 3.5759-1.6968 0.5907-0.591 1.0451-1.4545 1.3482-2.5758 0.318-1.1362 0.4697-2.5149 0.4697-4.1511-0.0151-1.5301-0.1817-2.7726-0.4697-3.7273-0.3031-0.9544-0.6364-1.6815-0.9998-2.1815-0.3634-0.4998-0.6667-0.8334-0.8938-1.0001-0.9397-0.8634-2.137-1.5454-3.5909-2.0299-1.4539-0.4847-3.0756-0.8334-4.8634-1.0457-1.8026-0.1967-3.6831-0.3044-5.6509-0.318-1.9531-0.0136-3.924 0.0303-5.8935 0.1063-1.9545 0.0907-3.8333 0.1817-5.6361 0.2877l-8.8175 0.4544c-1.2121 0.091-2.2271-0.121-3.0302-0.6361-0.8181-0.5153-1.4255-1.2135-1.8332-2.0908-0.4076-0.8774-0.606-1.8182-0.606-2.8182-0.015-0.9998 0.1984-1.9557 0.606-2.8483 0.4077-0.8923 1.0304-1.6208 1.8482-2.1815 0.8334-0.5454 1.8638-0.8181 3.1062-0.7878l8.0901-0.3637c2.9089-0.212 5.9238-0.3634 9.0451-0.4546 3.1209-0.1061 6.2115 0 9.2568 0.288 3.0603 0.288 5.9389 0.9096 8.6357 1.8634 2.6969 0.9542 5.0755 2.3939 7.151 4.3028 2.0001 1.8635 3.4997 4.0606 4.4997 6.6055 1.0001 2.5302 1.4998 5.3935 1.4998 8.5754 0 3.227-0.4544 6.0902-1.3331 8.5751-0.8938 2.4999-2.2119 4.6057-3.9393 6.3329-1.4845 1.4091-3.136 2.5149-4.9541 3.2726-1.8332 0.7727-3.742 1.3181-5.7572 1.6211-2.0151 0.3181-4.0768 0.4861-6.1509 0.5151-2.0744 0.0289-4.121 0.015-6.1361-0.0457-2.0603-0.0453-4.0601-0.0453-6.0299 0-1.9695 0.0607-3.742 0.2577-5.3331 0.6061-1.5755 0.3333-2.8176 0.9243-3.7267 1.7577-0.682 0.6361-1.1818 1.5602-1.5151 2.7876-0.3184 1.2118-0.485 2.7119-0.485 4.4844 0.0153 1.0908 0.1063 1.9846 0.3183 2.7119 0.197 0.7271 0.4394 1.3031 0.7274 1.7575 0.303 0.4544 0.5754 0.8031 0.8634 1.0758 0.9394 0.8637 2.1529 1.5468 3.636 2.0602 1.4834 0.5139 3.1516 0.879 4.9997 1.1061 1.8485 0.2426 3.7877 0.3787 5.8179 0.4243 2.0301 0.0456 4.0603 0.0454 6.0905-0.015s3.9693-0.1366 5.8175-0.2123l7.2723-0.2727c1.2271-0.0757 2.2575 0.1514 3.0756 0.6817 0.8184 0.5151 1.4258 1.2285 1.8335 2.1062 0.4073 0.877 0.621 1.8178 0.621 2.8329 0 0.9998-0.2137 1.9406-0.621 2.8332-0.4077 0.8924-1.0165 1.6073-1.8335 2.1512-0.8164 0.544-1.8485 0.8031-3.0756 0.7577l-6.8176 0.2727c-2.9849 0.1664-6.0616 0.2591-9.2571 0.3031-3.1952 0.0439-6.3479-0.091-9.4535-0.4397-3.1213-0.3331-6.0299-1.0151-8.7574-2.0149-2.7269-1-5.1208-2.4542-7.166-4.3937zm60.752 2.7272v-62.541c-0.0454-1.2121 0.197-2.2272 0.727-3.0303 0.5301-0.818 1.2425-1.4241 2.1062-1.8331 0.8784-0.4091 1.8028-0.6211 2.7876-0.6211 0.9847-0.0153 1.9091 0.197 2.7876 0.591 0.8634 0.4088 1.5616 1.0154 2.0758 1.8329 0.5142 0.8172 0.7574 1.8332 0.6967 3.0606v62.541c0.0607 1.2275-0.1825 2.2431-0.6967 3.0603-0.5142 0.8175-1.2124 1.4244-2.0758 1.8332-0.8785 0.394-1.8029 0.606-2.7876 0.591-0.9848 0-1.9092-0.212-2.7876-0.621-0.8637-0.4094-1.5761-1.0151-2.1062-1.8335-0.53-0.8028-0.7724-1.8181-0.727-3.03zm27.482-0.2726c-1.6364-1.6362-2.8788-3.6514-3.7425-6.0452-0.8485-2.3936-1.3031-5.1361-1.3482-8.2267 0-0.0145 0-0.4847-0.015-1.3785 0-0.9091 0-2.1212-0.0153-3.6516 0-1.5299-0.0153-3.242-0.0304-5.1508-0.015-1.9092-0.0153-3.8787-0.03-5.9088-0.0153-2.0299-0.0153-3.9997-0.0306-5.9086-0.015-1.9091-0.0301-3.621-0.0301-5.1511-0.0153-1.5304-0.0153-2.7425-0.0153-3.6513-0.0153-0.8941-0.0153-1.3638-0.0153-1.3788 0-3.4693 0.4547-6.4085 1.3638-8.8174 0.909-2.4242 2.1364-4.394 3.6966-5.9392 1.5602-1.5449 3.318-2.7572 5.2875-3.621 1.9545-0.8787 3.9847-1.4998 6.1058-1.8938 2.1059-0.3787 4.1814-0.6213 6.1966-0.712 2.0148-0.091 3.8633-0.1208 5.5298-0.1061 0.0147 0 0.0609-0.0153 0.1667-0.0303 0.1057-0.015 0.1972-0.0156 0.3027-0.0303 0.106-0.0148 0.1517-0.0301 0.167-0.0301 2.1512-0.0156 4.2876 0.0153 6.4085 0.0757s4.1817 0.2574 6.1815 0.5908c1.9996 0.318 3.8787 0.8637 5.6359 1.6361 1.7572 0.7727 3.3483 1.8485 4.7724 3.2423 1.6818 1.6364 2.9545 3.6513 3.8029 6.0451 0.8635 2.3939 1.2875 5.1359 1.2875 8.2265 0 0.0153 0 0.5153 0.0154 1.4697 0 0.9698 0 2.2573 0.0153 3.8937 0 1.6211 0.0153 3.4546 0.03 5.4845s0.0153 4.1363 0.0303 6.3025c0.0151 2.1663 0.0153 4.2577 0.0304 6.3029 0.0147 2.0296 0.0303 3.8633 0.0303 5.4995 0.015 1.6361 0.015 2.9392 0.015 3.9089 0.0153 0.9695 0.0153 1.4695 0.0153 1.4996 0 2.9092-0.394 5.4997-1.1667 7.757-0.7878 2.2425-1.9695 4.1513-3.5603 5.6968-1.3485 1.3484-2.8636 2.3935-4.5298 3.1512-1.6818 0.7574-3.4546 1.3031-5.3484 1.6362-1.9088 0.3333-3.8633 0.5304-5.8629 0.6211-2.0151 0.0759-4.0456 0.1213-6.0755 0.1366h-2.6362c-2.0755 0.015-4.1514-0.0153-6.2269-0.076-2.0605-0.0606-4.0756-0.2574-6.0451-0.5754-1.9696-0.3336-3.818-0.8793-5.5752-1.6518-1.7572-0.7721-3.3486-1.8481-4.7875-3.2419zm23.635-56.36h-0.6364c-3.5 0.0153-6.3785 0.167-8.6208 0.4544-2.2422 0.2877-3.9693 0.788-5.2117 1.5001-1.2271 0.7121-2.0909 1.7121-2.5756 2.9999-0.4697 1.2875-0.6965 2.9393-0.6817 4.9541 0 0.0145 0 0.4847 0.015 1.3788 0 0.9088 0 2.1209 0.0153 3.6513 0 1.5301 0.0153 3.2423 0.0303 5.1511 0.0148 1.9086 0.0151 3.8784 0.0301 5.9086 0.0153 2.0301 0.0156 3.9999 0.0306 5.9088 0.0147 1.9085 0.03 3.6209 0.03 5.1508 0.0151 1.5304 0.0151 2.7425 0.0151 3.6516 0.0156 0.8938 0.0156 1.3635 0.0156 1.3785 0.045 1.5454 0.2117 2.8482 0.4997 3.8937 0.288 1.0607 0.7271 1.8788 1.3181 2.4695 0.8181 0.7424 1.9848 1.2728 3.515 1.6061 1.5301 0.3181 3.2723 0.5151 5.2118 0.5757 1.9391 0.0757 3.939 0.106 5.9995 0.0907l2.6362-0.0907c1.9695 0.015 3.8633-0.0153 5.7118-0.0759 1.8332-0.0607 3.4693-0.2424 4.9085-0.5454 1.4394-0.2877 2.5302-0.7878 3.2879-1.4695 0.4997-0.5 0.8634-1.2271 1.1058-2.1665 0.2273-0.9545 0.3487-2.1059 0.3487-3.4696 0-0.0151 0-0.5151-0.0154-1.4695 0-0.9698 0-2.2572-0.0153-3.8784 0-1.6361-0.0153-3.4699-0.03-5.4995-0.015-2.0302-0.0153-4.1213-0.0303-6.2878-0.0153-2.1665-0.0153-4.2573-0.0304-6.2872-0.015-2.0302-0.0303-3.8634-0.0303-5.4995-0.015-1.6212-0.015-2.9092-0.015-3.879-0.0153-0.9541-0.0153-1.4541-0.0153-1.4694 0-1.5455-0.1514-2.8636-0.4544-3.9238-0.303-1.0757-0.7274-1.8941-1.2728-2.4395-0.8484-0.7724-2.0455-1.3334-3.6059-1.6664-1.5602-0.3331-3.348-0.5151-5.3329-0.5758-1.9845-0.0606-4.03-0.0756-6.1508-0.0303zm84.156 56.542v-55.36c0-0.1364 0-0.2877-0.0453-0.5001-0.0303-0.1967-0.1364-0.394-0.303-0.5757-0.1664-0.1817-0.4394-0.303-0.8334-0.3787-0.3938-0.0456-0.6968-0.015-0.9091 0.091-0.212 0.1213-0.3634 0.2727-0.4544 0.4544-0.091 0.1667-0.1516 0.3183-0.1817 0.4547 0 0.03-0.197 0.6211-0.5604 1.7875-0.364 1.1668-0.8637 2.7576-1.5001 4.7727-0.6364 2.0299-1.3635 4.3328-2.1818 6.9236-0.8181 2.5906-1.6815 5.3178-2.5753 8.1964-0.9091 2.8786-1.8181 5.7572-2.7272 8.6358-0.8938 2.8785-1.7575 5.6057-2.5756 8.1966-0.818 2.5906-1.5454 4.8935-2.1815 6.9236-0.6364 2.0149-1.1364 3.6057-1.5001 4.7724-0.3634 1.1665-0.5607 1.7575-0.5607 1.7876-0.7118 2.1058-1.8028 3.8633-3.242 5.3027-1.4391 1.4242-3.1359 2.4393-5.0601 3.0603-1.9242 0.6214-3.9847 0.7728-6.1512 0.4547-2.1365-0.379-4.015-1.1667-5.6361-2.3785-1.6211-1.1971-2.8786-2.6969-3.7877-4.4847-0.909-1.8029-1.3787-3.7877-1.3938-5.9542v-54.542c-0.0606-1.2271 0.1817-2.2422 0.6971-3.0603 0.515-0.8181 1.2121-1.4241 2.0755-1.8332 0.8787-0.394 1.8028-0.606 2.7876-0.591 0.985 0 1.9091 0.2123 2.7879 0.6214 0.8634 0.409 1.5755 1.0148 2.1058 1.8331 0.5301 0.8028 0.7725 1.8182 0.7274 3.03v54.542c-0.0153 0.1363 0.015 0.3183 0.0604 0.576 0.0453 0.2424 0.1667 0.4694 0.3637 0.6967 0.212 0.2274 0.5604 0.3788 1.0304 0.4547 0.4847 0.0757 0.8484 0.0451 1.1208-0.1063 0.273-0.1516 0.4697-0.3333 0.606-0.5454 0.1213-0.2273 0.2123-0.394 0.2727-0.5303 0-0.0301 0.197-0.6211 0.5607-1.7878 0.3634-1.1665 0.8637-2.757 1.4998-4.7722 0.6364-2.0301 1.3638-4.3333 2.1816-6.9239 0.8183-2.5908 1.6818-5.3178 2.5758-8.1963 0.9091-2.8786 1.8179-5.7572 2.7269-8.6358 0.8941-2.8786 1.7575-5.6058 2.5756-8.1964 0.8184-2.5908 1.5454-4.8937 2.1818-6.9239 0.6364-2.0148 1.1361-3.6056 1.4998-4.7724 0.3637-1.1664 0.5604-1.7572 0.5604-1.7878 0.6821-2.0449 1.7275-3.757 3.1213-5.1508 1.3938-1.3788 3.0299-2.3786 4.9087-2.9696 1.8635-0.6061 3.8634-0.7424 5.9692-0.4241 2.0756 0.3481 3.9087 1.1058 5.4848 2.2573 1.5755 1.1514 2.8026 2.6058 3.6964 4.3633 0.894 1.7422 1.3484 3.6967 1.3637 5.8329v55.36c0.0607 1.2269-0.1817 2.2422-0.697 3.06-0.5154 0.8184-1.2121 1.4245-2.0756 1.8335-0.8787 0.3937-1.8028 0.606-2.7878 0.591-0.9848 0-1.9089-0.2123-2.7876-0.6213-0.8635-0.4091-1.5755-1.0151-2.1059-1.8332-0.5303-0.8031-0.7727-1.8181-0.7274-3.03"/><path d="m182.83 139.5c1.3261 0.2871 2.6394 0.68 3.9408 1.1826 3.0203 1.1775 5.8589 2.8386 8.4866 4.953 2.6274 2.1138 4.9226 4.5904 6.8553 7.399 1.963 2.8389 3.4432 5.9193 4.47 9.2412 0.0297 0.0301 0.3926 1.2685 1.148 3.6848 0.7546 2.4159 1.7813 5.7381 3.1104 9.9663 1.2983 4.2279 2.8086 9.0298 4.4697 14.466 1.6912 5.4059 3.473 11.114 5.3153 17.154 1.8725 6.0097 3.7445 12.02 5.6174 18.06 1.8422 6.0097 3.6241 11.748 5.3152 17.154 1.6611 5.4358 3.1709 10.268 4.4697 14.496 1.3286 4.2282 2.3559 7.5804 3.1107 9.9964 0.7549 2.446 1.1172 3.6845 1.1478 3.7448 0.8149 2.2953 0.9663 4.379 0.4223 6.2212l-0.0243 0.0876-7e-3 0.0241-0.0159 0.0553-2e-3 8e-3 -0.0142 0.0474-0.0116 0.0391-0.0215 0.0706-5e-3 0.0156-0.0125 0.0394-0.0145 0.0459-3e-3 9e-3 -0.0176 0.0541-7e-3 0.0224-0.0105 0.0318-0.0179 0.053-3e-4 8e-4c-0.0181 0.0539-0.0371 0.1072-0.0558 0.1608l-3e-3 6e-3 -0.017 0.0468-0.0133 0.0365-6e-3 0.0165-0.0196 0.0527-5e-3 0.0136-0.015 0.0388-0.0167 0.0434-3e-3 9e-3 -0.0287 0.0728-0.0127 0.0312-0.0204 0.0502-9e-4 2e-3 -0.0215 0.0516-0.0116 0.0278-0.01 0.0235-0.0218 0.0516-2e-3 5e-3 -0.0348 0.0796-8e-3 0.0167-0.028 0.0633-0.0179 0.0382-0.0187 0.0408-5e-3 9e-3 -0.0233 0.0502-9e-3 0.019-0.0145 0.0309-0.023 0.0476-1e-3 2e-3 -0.0244 0.0494-0.0124 0.0258-0.0119 0.0238-0.0253 0.0493-2e-3 4e-3 -0.0233 0.045-0.0164 0.0321-9e-3 0.0167-0.0255 0.0487-6e-3 0.0108-0.0201 0.0377-0.0207 0.0386-6e-3 0.01-0.0266 0.0482-9e-3 0.0173-0.0173 0.0309-0.0252 0.0445-2e-3 3e-3 -0.0272 0.0479-0.0139 0.0238-0.0139 0.0235-0.028 0.0474-2e-3 3e-3 -0.0264 0.0436-0.0179 0.0301-5e-4 2e-4c-0.0593 0.0984-0.1205 0.1954-0.1834 0.2915l-3e-3 4e-3c-0.0465 0.0703-0.0941 0.1403-0.1423 0.2101l-0.0122 0.017-0.0317 0.045-6e-3 8e-3c-0.0298 0.0422-0.0601 0.0842-0.0907 0.1258-0.0621 0.0839-0.125 0.1676-0.1899 0.2498-0.0323 0.0411-0.0652 0.0822-0.0981 0.123v3e-4l-0.0201 0.0241v2e-4l-0.04 0.0485-0.0201 0.0244-0.0814 0.0964v3e-4l-0.0207 0.024-0.0204 0.0241-0.021 0.0236-0.0209 0.0241-0.0632 0.0711v3e-4l-0.0423 0.0471-0.0212 0.0238-0.0216 0.0235v3e-4l-0.0218 0.0232-0.0216 0.0233-0.0215 0.0232v3e-4l-0.0439 0.0465-0.0219 0.0232-0.0221 0.0235v3e-4l-0.0221 0.0227-0.0224 0.0233-0.0221 0.0226-0.0227 0.0233v3e-4l-0.0224 0.0224v2e-4l-0.0226 0.023-0.0224 0.0227v3e-4l-0.023 0.0224-0.0229 0.0229v3e-4l-0.0227 0.0224-0.0233 0.0229-0.0229 0.0227-0.0233 0.0224-0.0232 0.0224-0.0235 0.0224v3e-4l-0.0236 0.0221-0.047 0.0448-0.0238 0.0224-0.0239 0.0224-0.024 0.0221-0.0239 0.0221-0.0241 0.0221c-0.0422 0.038-0.0853 0.0757-0.1278 0.1128l-7e-3 7e-3 -0.1207 0.1037-9e-3 8e-3 -1e-3 1e-3 -0.1188 0.0992-0.0133 0.0113-3e-3 3e-3 -0.1126 0.0921-0.0181 0.0145-0.0252 0.0204-0.0868 0.0686-0.0226 0.0178-0.0207 0.0165-0.1075 0.0822-7e-3 6e-3 -0.0167 0.0122-0.0873 0.0658-0.032 0.0241-0.0119 9e-3 -0.0908 0.066-0.0507 0.0371-0.0788 0.0559-0.0414 0.0292-3e-3 2e-3 -8e-3 6e-3 -0.1236 0.0851-1e-3 8e-4 -2e-3 1e-3 -4e-3 3e-3 -0.1202 0.0805-8e-3 5e-3 -7e-3 4e-3 -0.015 0.01-0.1077 0.0705-5e-3 3e-3 -0.0111 7e-3 -0.034 0.0219-0.0448 0.0283-0.0451 0.0284-0.0158 0.01-0.0292 0.0178-0.0905 0.0556-0.0207 0.0125-0.0243 0.015-0.091 0.0539-0.0252 0.015-0.0202 0.0116-0.1006 0.0578-0.0363 0.0207-0.0456 0.0258-0.0457 0.0258-0.0827 0.0451-9e-3 5e-3 -0.0459 0.0249-0.04 0.0216-6e-3 3e-3 -0.0462 0.0244-0.0462 0.0241-6e-3 3e-3 -0.0405 0.021-0.0465 0.0238-0.0462 0.0235-4e-3 2e-3 -0.0896 0.0445-0.0465 0.0233-52.13-144.36z"/><path d="m117.85 260.26m0.4702-1.5026-0.4702 1.5026v3e-4c-0.8861 2.8414-1.6058 5.1809-2.1711 6.9942-0.7548 2.446-1.1171 3.6845-1.1477 3.7448-0.8153 2.2953-0.9664 4.379-0.4227 6.2212 0.5134 1.8723 1.48 3.4127 2.8993 4.7115 1.4791 1.3218 3.0722 2.1728 4.792 2.6827 1.5514 0.4604 3.2057 0.6432 4.9736 0.6432h0.4961z"/></g><g clip-path="url(#clipPath274)"><path d="m131.23 217.06-2.6544 8.5462-1.3002 4.2304 15.925 55.42h24.949z" fill="url(#linearGradient282)"/></g><g clip-path="url(#clipPath292)"><path d="m142.36 181.16c-0.4705 1.5151-0.9604 3.0921-1.468 4.7342l36.699 99.366h15.983l-9e-4 -2e-3z" fill="url(#linearGradient300)"/></g><g clip-path="url(#clipPath310)"><path d="m161.84 143.95c-0.7764 0.525-1.5364 1.0863-2.2791 1.6841-2.6277 2.1138-4.9229 4.5904-6.8556 7.399-1.3161 1.9037-2.4157 3.9158-3.3069 6.0367l50.664 126.19h27.982c2.5271 0 4.8226-0.3733 6.9157-1.3963l-71.772-137.33z" fill="url(#linearGradient318)"/></g></g></svg>
