<?xml version="1.0" encoding="UTF-8"?>
<svg width="44.764mm" height="51.277mm" version="1.1" viewBox="0 0 44.764 51.277" xmlns="http://www.w3.org/2000/svg" xmlns:cc="http://creativecommons.org/ns#" xmlns:dc="http://purl.org/dc/elements/1.1/" xmlns:rdf="http://www.w3.org/1999/02/22-rdf-syntax-ns#">
 <defs>
  <linearGradient id="linearGradient74" x1=".04" x2=".96" gradientTransform="matrix(-71.848 -147.48 124.44 -60.624 286.07 798.43)" gradientUnits="userSpaceOnUse">
   <stop stop-color="#e3000f" offset="0"/>
   <stop stop-color="#890c00" offset="1"/>
  </linearGradient>
  <linearGradient id="linearGradient56" x1=".04" x2=".96" gradientTransform="matrix(-52.613 -108 90.337 -44.01 272.96 788.94)" gradientUnits="userSpaceOnUse">
   <stop stop-color="#e3000f" offset="0"/>
   <stop stop-color="#890c00" offset="1"/>
  </linearGradient>
  <linearGradient id="linearGradient38" x1=".05" x2=".95" gradientTransform="matrix(-34.595 -71.011 59.719 -29.094 255.46 780.89)" gradientUnits="userSpaceOnUse">
   <stop stop-color="#e3000f" offset="0"/>
   <stop stop-color="#890c00" offset="1"/>
  </linearGradient>
 </defs>
 <metadata>
  <rdf:RDF>
   <cc:Work rdf:about="">
    <dc:format>image/svg+xml</dc:format>
    <dc:type rdf:resource="http://purl.org/dc/dcmitype/StillImage"/>
    <dc:title/>
   </cc:Work>
  </rdf:RDF>
 </metadata>
 <g transform="translate(-83.451 -122.53)">
  <g transform="matrix(.35278 0 0 -.35278 .83324 392.35)">
   <path d="m282.11 623.92c-0.7741 0.5233-1.5318 1.0834-2.2728 1.6792-2.6203 2.1082-4.909 4.578-6.8366 7.3786-1.3121 1.8984-2.4089 3.9047-3.2972 6.02l50.523 125.84h27.905c2.52 0 4.8093-0.3722 6.8964-1.3927l-71.572-136.95h-3e-4z" fill="url(#linearGradient74)"/>
   <path d="m262.69 661.03c-0.4691 1.5109-0.9575 3.0835-1.4638 4.7208l36.597 99.09h15.938l-9e-4 -2e-3z" fill="url(#linearGradient56)"/>
   <path d="m251.59 696.83-2.6473 8.5226-1.2966 4.2185 15.881 55.266h24.879z" fill="url(#linearGradient38)"/>
   <path d="m238.24 739.91m0.4691-1.4984-0.4691 1.4984v6e-4c-0.8835 2.8335-1.6013 5.1661-2.1651 6.9746-0.7526 2.4393-1.114 3.6743-1.1443 3.7344-0.813 2.2887-0.9638 4.3668-0.4215 6.2039 0.5119 1.8672 1.4754 3.4033 2.891 4.6984 1.4752 1.3184 3.0634 2.1668 4.7787 2.6754 1.5471 0.4589 3.1969 0.6412 4.96 0.6412h0.4944z" fill="#1a1a18"/>
   <path d="m303.04 619.49c1.3227 0.2866 2.6317 0.6781 3.93 1.1792 3.0115 1.1741 5.8427 2.8307 8.4631 4.9391 2.62 2.1079 4.909 4.5777 6.8363 7.3783 1.9573 2.8313 3.4333 5.9032 4.4572 9.2157 0.03 0.0301 0.3915 1.2654 1.1446 3.6746 0.7529 2.4091 1.7765 5.7223 3.1023 9.9385 1.2945 4.2163 2.8003 9.0049 4.4569 14.426 1.6866 5.391 3.4636 11.083 5.3005 17.107 1.8674 5.9933 3.7343 11.986 5.6018 18.01 1.8369 5.9933 3.6139 11.716 5.3005 17.106 1.6563 5.4207 3.1621 10.239 4.4572 14.456 1.3252 4.2163 2.3494 7.5592 3.102 9.9686 0.7528 2.4393 1.1143 3.6743 1.1446 3.7344 0.8127 2.2887 0.9638 4.3668 0.4215 6.2039l-0.0244 0.0873-7e-3 0.0241-0.0161 0.0553-2e-3 8e-3 -0.0142 0.0474-0.0116 0.0388-0.0216 0.0706-5e-3 0.0153-0.0122 0.0394-0.0147 0.0459-3e-3 9e-3 -0.0175 0.0539-7e-3 0.0227-0.0105 0.0314-0.0178 0.0528-3e-4 8e-4c-0.0182 0.0536-0.0369 0.1072-0.0559 0.1602l-2e-3 6e-3 -0.0168 0.0465-0.0136 0.0365-6e-3 0.0162-0.0199 0.0527-5e-3 0.0136-0.0147 0.0389-0.0167 0.0431-4e-3 9e-3 -0.0286 0.0726-0.0125 0.0312-0.0204 0.0501-9e-4 2e-3 -0.0212 0.0514-0.0116 0.0274-0.01 0.0239-0.0218 0.0513-2e-3 5e-3 -0.0351 0.0799-7e-3 0.0164-0.028 0.063-0.0176 0.0382-0.0187 0.0406-5e-3 0.01-0.0232 0.0499-9e-3 0.019-0.0147 0.0309-0.023 0.0471-1e-3 2e-3 -0.0244 0.0496-0.0127 0.0255-0.0117 0.0238-0.0249 0.0491-2e-3 4e-3 -0.0229 0.0448-0.0165 0.032-9e-3 0.0168-0.0258 0.0484-6e-3 0.0111-0.0202 0.0374-0.0207 0.0383-5e-3 0.01-0.0267 0.0482-0.01 0.0173-0.017 0.0306-0.025 0.0442-2e-3 3e-3 -0.0272 0.0476-0.0139 0.0236-0.0139 0.0238-0.0277 0.0473-2e-3 3e-3 -0.0264 0.0437-0.0179 0.03-2e-4 3e-4c-0.0593 0.0978-0.1202 0.1945-0.1832 0.2903l-2e-3 4e-3c-0.0462 0.0705-0.0936 0.1403-0.1417 0.2094l-0.0122 0.0173-0.0315 0.0448-6e-3 8e-3c-0.0298 0.0423-0.0599 0.0839-0.0905 0.1256-0.0618 0.0836-0.1247 0.1667-0.1893 0.2489v3e-4c-0.0321 0.0408-0.0649 0.0816-0.0978 0.1224l-0.0199 0.0244-0.0399 0.0485v3e-4l-0.0202 0.0241-0.0813 0.0963-0.0204 0.0238v3e-4l-0.0207 0.0238-0.0207 0.0239-0.0207 0.0238-0.0629 0.0711v3e-4l-0.0425 0.0471-0.0213 0.0232v3e-4l-0.0213 0.0232v3e-4l-0.0215 0.0233-0.0218 0.0235-0.0216 0.0232-0.0436 0.0465-0.0219 0.0233-0.0221 0.0229v3e-4l-0.0221 0.0227v3e-4l-0.0221 0.0229-0.0224 0.023-0.0221 0.0229-0.0227 0.023-0.0224 0.0227v3e-4l-0.068 0.068-0.023 0.0227-0.0229 0.0226-0.023 0.0224v3e-4l-0.0232 0.0224-0.0233 0.0224-0.0232 0.0224-0.0235 0.0224-0.0236 0.0224-0.047 0.0442v3e-4l-0.0476 0.0442-0.0241 0.0221-0.0239 0.0221c-0.0422 0.0377-0.085 0.0754-0.1275 0.1123l-7e-3 7e-3 -0.1205 0.1035-9e-3 8e-3 -1e-3 1e-3 -0.1182 0.0992-0.0136 0.011-3e-3 3e-3 -0.1125 0.0915-0.0179 0.0148-0.0252 0.0198-0.0434 0.0346-0.0431 0.034-0.0226 0.0179-0.0207 0.0164-0.1069 0.0822-7e-3 6e-3 -0.0164 0.0125-0.0873 0.0654-0.0318 0.0238-0.0119 9e-3 -0.0907 0.0661-0.0505 0.0365-0.0785 0.0562-0.0411 0.0292-0.012 8e-3 -0.1233 0.0853-9e-4 6e-4 -2e-3 1e-3 -4e-3 3e-3 -0.1199 0.0802-8e-3 5e-3 -6e-3 4e-3 -0.0153 0.01-0.1075 0.07-5e-3 3e-3 -0.011 7e-3 -0.0338 0.0215-0.0448 0.0284-0.0447 0.0283-0.0159 0.01-0.0292 0.0179-0.0902 0.0553-0.0204 0.0124-0.0246 0.0148-0.0905 0.0538-0.0255 0.0151-0.0198 0.0116-0.1004 0.0578-0.036 0.0207-0.0456 0.0255-0.0459 0.0255-0.0822 0.0454-9e-3 5e-3 -0.0459 0.0249-0.0403 0.0216-6e-3 3e-3 -0.046 0.0244-0.0462 0.0241-6e-3 3e-3 -0.0406 0.021-0.0462 0.0238-0.0462 0.0232-0.093 0.0465-0.0465 0.0227h-2e-4l-51.985-143.96z" fill="#1a1a18"/>
  </g>
 </g>
</svg>
